<svg preserveAspectRatio="none" width="100%" height="100%" overflow="visible" style="display: block;" viewBox="0 0 32 32" fill="none" xmlns="http://www.w3.org/2000/svg">
<g id="link">
<mask id="mask0_0_12" style="mask-type:alpha" maskUnits="userSpaceOnUse" x="0" y="0" width="32" height="32">
<rect id="Bounding box" width="32" height="32" fill="var(--fill-0, #D9D9D9)"/>
</mask>
<g mask="url(#mask0_0_12)">
<path id="link_2" d="M14.6667 22.6667H9.33333C7.48889 22.6667 5.91667 22.0167 4.61667 20.7167C3.31667 19.4167 2.66667 17.8444 2.66667 16C2.66667 14.1556 3.31667 12.5833 4.61667 11.2833C5.91667 9.98333 7.48889 9.33333 9.33333 9.33333H14.6667V12H9.33333C8.22222 12 7.27778 12.3889 6.5 13.1667C5.72222 13.9444 5.33333 14.8889 5.33333 16C5.33333 17.1111 5.72222 18.0556 6.5 18.8333C7.27778 19.6111 8.22222 20 9.33333 20H14.6667V22.6667ZM10.6667 17.3333V14.6667H21.3333V17.3333H10.6667ZM17.3333 22.6667V20H22.6667C23.7778 20 24.7222 19.6111 25.5 18.8333C26.2778 18.0556 26.6667 17.1111 26.6667 16C26.6667 14.8889 26.2778 13.9444 25.5 13.1667C24.7222 12.3889 23.7778 12 22.6667 12H17.3333V9.33333H22.6667C24.5111 9.33333 26.0833 9.98333 27.3833 11.2833C28.6833 12.5833 29.3333 14.1556 29.3333 16C29.3333 17.8444 28.6833 19.4167 27.3833 20.7167C26.0833 22.0167 24.5111 22.6667 22.6667 22.6667H17.3333Z" fill="var(--fill-0, #1C1C1C)"/>
</g>
</g>
</svg>
